<?xml version="1.0" standalone="no"?>
<!DOCTYPE svg PUBLIC "-//W3C//DTD SVG 20010904//EN"
 "http://www.w3.org/TR/2001/REC-SVG-20010904/DTD/svg10.dtd">
<svg version="1.0" xmlns="http://www.w3.org/2000/svg"
 width="571.000000pt" height="252.000000pt" viewBox="0 0 571.000000 252.000000"
 preserveAspectRatio="xMidYMid meet">
<metadata>
Created by potrace 1.16, written by Peter Selinger 2001-2019
</metadata>
<g transform="translate(0.000000,252.000000) scale(0.100000,-0.100000)"
fill="#000000" stroke="none">
<path d="M2175 2283 c-16 -8 -31 -17 -33 -18 -1 -1 9 -22 23 -46 13 -24 32
-65 40 -91 16 -46 16 -46 -45 -280 -71 -268 -80 -327 -56 -347 19 -16 56 -18
100 -7 21 5 26 11 20 24 -4 9 -9 29 -12 45 -4 28 46 336 58 350 4 4 17 -22 29
-59 39 -118 111 -204 172 -204 40 0 106 48 155 112 45 60 114 192 114 219 0 7
2 10 5 7 3 -2 -4 -94 -16 -204 -22 -208 -20 -280 6 -320 19 -30 58 -31 103 -4
28 17 32 23 22 35 -33 40 -29 186 16 526 26 194 16 220 -72 203 l-49 -9 -16
-60 c-21 -76 -42 -125 -87 -200 -55 -92 -109 -161 -137 -173 -33 -15 -31 -16
-54 9 -32 34 -60 101 -122 293 -32 99 -66 187 -75 198 -21 22 -49 22 -89 1z"/>
<path d="M3680 2221 c0 -30 26 -77 45 -85 9 -3 37 -6 61 -6 42 0 45 -1 38 -22
-3 -13 -14 -39 -24 -58 -57 -114 -98 -299 -86 -382 13 -87 73 -148 154 -156
87 -8 167 34 240 127 l39 49 7 -60 c14 -139 132 -189 236 -101 18 15 30 34 30
49 0 28 -7 29 -46 9 -55 -28 -85 -17 -98 37 -17 74 44 395 98 515 l26 56 -47
-7 c-92 -12 -119 -52 -157 -235 -28 -129 -61 -195 -136 -273 -68 -69 -123 -89
-170 -61 -31 18 -38 28 -50 81 -18 75 31 261 115 439 l43 92 -141 -2 c-78 -1
-150 2 -159 7 -14 6 -18 4 -18 -13z"/>
<path d="M942 2211 c-171 -59 -292 -222 -309 -415 -7 -94 14 -172 64 -227 46
-50 75 -66 149 -78 159 -25 378 76 378 174 0 19 -3 37 -7 41 -3 4 -27 -12 -52
-34 -71 -62 -128 -86 -215 -90 -66 -3 -79 -1 -109 20 -116 79 -103 327 25 476
49 58 100 82 170 82 55 0 59 -2 107 -50 27 -27 53 -50 57 -50 14 0 43 53 43
78 0 77 -170 118 -301 73z"/>
<path d="M1785 2218 c-16 -6 -43 -22 -59 -37 -38 -35 -169 -198 -236 -294
l-54 -77 -47 0 c-27 0 -59 -5 -72 -11 -23 -10 -63 -66 -54 -75 2 -2 28 1 56 7
29 6 55 8 58 5 3 -3 -10 -38 -30 -78 -39 -80 -53 -135 -38 -157 11 -17 59 -19
97 -2 27 10 29 16 29 64 0 35 9 70 27 110 l27 57 135 0 136 0 6 -27 c42 -198
96 -255 178 -190 25 21 27 25 13 38 -61 61 -100 259 -101 507 -1 191 2 185
-71 160z m-41 -345 l7 -63 -106 0 -106 0 15 29 c9 16 50 75 93 132 l78 104 6
-70 c4 -38 10 -98 13 -132z"/>
<path d="M3243 2211 c-170 -46 -271 -132 -243 -206 l10 -27 60 55 c71 66 144
103 231 116 147 23 231 -33 215 -143 -9 -60 -52 -115 -114 -149 -52 -28 -149
-51 -157 -37 -3 5 4 53 16 109 25 124 23 155 -11 159 -13 2 -40 -1 -60 -7 -35
-10 -37 -13 -37 -53 0 -64 -32 -198 -47 -198 -7 0 -34 11 -59 24 -48 26 -57
25 -57 -9 0 -27 35 -61 78 -76 18 -6 32 -18 32 -27 0 -9 -12 -78 -27 -154 -31
-156 -29 -164 37 -152 59 10 70 20 71 67 0 23 10 87 22 142 l22 100 75 7 c90
10 180 49 245 109 87 80 116 184 77 273 -18 39 -30 51 -69 68 -68 31 -212 35
-310 9z"/>
<path d="M4747 2214 c-69 -21 -130 -85 -147 -153 -19 -82 2 -124 126 -252 57
-58 108 -119 114 -134 23 -60 -19 -122 -99 -146 -86 -26 -171 25 -186 109 -4
23 -10 42 -14 42 -4 0 -21 -15 -39 -33 -85 -88 2 -196 158 -197 126 0 216 48
263 139 30 61 34 102 12 154 -13 33 -95 129 -192 225 -35 36 -43 51 -43 81 0
111 153 152 234 62 11 -12 22 -21 26 -21 14 0 32 60 26 84 -13 52 -134 72
-239 40z"/>
<path d="M1942 1036 c-39 -20 -42 -24 -27 -36 9 -8 27 -35 40 -61 l24 -47 -49
-209 c-27 -114 -57 -247 -66 -295 -16 -81 -16 -89 0 -113 18 -27 62 -34 110
-15 24 9 25 10 9 41 -11 23 -14 49 -10 98 7 92 58 354 67 344 4 -4 35 -71 69
-149 106 -243 177 -344 240 -344 63 0 110 97 156 317 46 224 55 372 25 408
-17 21 -80 18 -110 -4 l-25 -19 24 -42 c21 -37 23 -55 23 -146 -2 -149 -38
-340 -70 -366 -29 -25 -71 52 -223 405 -54 126 -106 235 -116 243 -25 18 -41
17 -91 -10z"/>
<path d="M2742 1037 c-42 -23 -43 -23 -23 -41 11 -10 29 -37 40 -61 l21 -44
-50 -208 c-27 -114 -56 -248 -65 -296 -15 -81 -15 -90 0 -113 17 -26 62 -32
109 -14 24 9 25 10 9 41 -11 23 -14 49 -10 98 7 89 59 354 67 344 4 -4 37 -75
74 -157 109 -247 172 -336 236 -336 60 0 103 79 145 271 50 227 66 391 42 439
-16 31 -63 38 -106 15 -36 -18 -37 -26 -14 -61 25 -39 32 -107 22 -230 -10
-125 -41 -261 -65 -284 -14 -13 -17 -12 -36 10 -31 38 -85 152 -189 395 -51
120 -101 227 -111 237 -23 23 -43 22 -96 -5z"/>
<path d="M5395 1036 c-31 -47 -77 -56 -298 -57 -252 0 -274 -4 -304 -48 -13
-19 -23 -42 -23 -51 0 -15 6 -16 43 -9 39 8 207 13 207 6 0 -2 -27 -137 -60
-300 -32 -164 -57 -304 -54 -312 7 -18 62 -20 99 -3 17 8 25 19 25 38 0 14 25
149 55 300 30 151 55 275 55 276 0 1 39 5 88 9 115 9 187 40 207 89 11 25 12
42 5 61 -12 31 -25 32 -45 1z"/>
<path d="M4006 993 c-4 -4 -114 -10 -244 -14 -174 -4 -245 -10 -267 -20 -27
-13 -83 -94 -73 -105 3 -2 25 4 49 15 44 19 119 37 119 29 0 -3 -9 -47 -20
-99 -11 -52 -20 -97 -20 -101 0 -5 -8 -8 -18 -8 -26 0 -60 -27 -78 -62 -8 -16
-14 -32 -12 -34 2 -2 21 2 41 8 20 6 40 9 43 5 3 -3 -4 -51 -15 -108 -34 -164
-26 -205 45 -235 61 -25 259 -12 327 23 26 13 67 77 56 88 -3 2 -26 -2 -52
-10 -81 -24 -187 -30 -230 -12 -47 20 -47 24 -21 170 l16 87 83 0 c104 0 138
12 165 57 11 20 19 37 17 40 -3 2 -24 -1 -48 -6 -51 -12 -199 -14 -199 -3 0 4
9 50 20 102 11 52 20 96 20 97 0 1 61 3 136 5 l136 3 34 39 c19 22 34 43 34
48 0 10 -34 11 -44 1z"/>
<path d="M593 971 c-302 -109 -414 -567 -169 -693 62 -32 176 -36 263 -10 137
42 230 134 194 191 -7 11 -19 6 -57 -26 -70 -58 -129 -85 -201 -91 -75 -6
-112 7 -153 54 -124 142 -5 482 184 525 50 11 58 10 101 -11 26 -13 56 -37 68
-56 12 -19 25 -34 28 -34 3 0 16 11 29 24 45 49 17 112 -59 135 -58 17 -168
13 -228 -8z"/>
<path d="M1400 964 c-25 -14 -54 -34 -65 -44 -11 -10 -43 -24 -70 -30 -68 -15
-124 -50 -178 -110 -116 -129 -118 -337 -5 -447 71 -68 99 -78 214 -78 95 0
104 2 175 37 255 126 370 445 222 617 -49 58 -101 81 -183 81 -51 0 -74 -6
-110 -26z m164 -95 c115 -91 91 -326 -47 -461 -83 -81 -180 -100 -274 -53 -79
40 -123 120 -123 225 0 92 40 175 105 219 41 28 50 24 35 -13 -13 -35 -13
-112 0 -136 9 -17 76 -47 85 -38 3 2 0 20 -5 39 -23 80 1 165 61 212 44 35
123 38 163 6z"/>
<path d="M4360 973 c-231 -81 -371 -378 -275 -589 39 -87 119 -133 235 -133
156 -1 330 93 330 179 0 45 -16 45 -66 2 -112 -100 -259 -121 -339 -50 -115
101 -59 402 94 505 87 59 168 51 237 -23 23 -24 44 -44 47 -44 3 0 15 16 27
35 19 31 21 40 10 65 -19 46 -80 70 -176 69 -44 0 -99 -8 -124 -16z"/>
</g>
</svg>
